<svg width="96" height="96" viewBox="0 0 480 480" fill="none" xmlns="http://www.w3.org/2000/svg">
<path d="M40.1319 73H187.255L202.268 95.0263V146.054H186.655L197.764 215.804C199.565 215.559 202.368 215.437 206.171 215.437L221.183 237.463L224.786 263.895C213.977 263.895 208.573 269.768 208.573 281.516C208.573 288.613 209.273 292.162 210.675 292.162C214.077 292.162 215.979 290.938 216.379 288.491L225.987 295.466L241 317.492C241 329.239 238.598 337.928 233.794 343.557C229.19 349.186 223.185 352 215.779 352C208.573 352 200.266 348.941 190.858 342.822C183.452 348.941 176.246 352 169.24 352C158.231 352 147.822 346.004 138.014 334.012C128.406 322.02 121.9 309.171 118.497 295.466L125.704 288.491C127.305 290.938 129.607 292.162 132.609 292.162C139.215 292.162 142.518 287.389 142.518 277.845L141.617 269.401C137.814 266.954 133.11 265.73 127.505 265.73C122.101 265.73 116.896 267.688 111.892 271.604C106.888 275.52 103.485 281.149 101.683 288.491L108.889 295.466L123.902 317.492C121.1 328.995 116.396 337.56 109.79 343.189C103.385 349.063 96.4791 352 89.0729 352C81.8668 352 74.2605 348.941 66.2538 342.822C57.2462 348.941 48.9393 352 41.3329 352C30.9242 352 21.7165 345.882 13.7098 333.645C5.90327 321.408 2 308.682 2 295.466L11.3078 288.491C11.7081 290.938 13.6097 292.162 17.0126 292.162C20.6156 292.162 24.0184 289.225 27.2211 283.351C30.624 277.478 32.7257 270.992 33.5264 263.895L17.6131 241.868L21.2161 215.437C29.8233 215.437 36.3287 216.171 40.7324 217.639L52.7425 142.75L40.1319 124.028V73ZM151.525 227.918C153.327 226.205 155.328 223.146 157.53 218.741H165.337C168.539 223.391 171.442 226.45 174.044 227.918C174.845 226.205 176.446 224.125 178.848 221.678L161.734 113.382H178.848V83.2789H48.539V113.382H65.6533L48.2387 221.678C50.6407 223.88 52.4422 225.961 53.6432 227.918C56.0452 226.205 58.8476 223.146 62.0503 218.741H69.8568C71.4581 223.391 73.1596 226.45 74.9611 227.918C82.5674 218.618 95.3781 213.968 113.393 213.968C131.608 213.968 144.319 218.618 151.525 227.918ZM174.945 307.58C183.752 315.901 192.159 320.062 200.166 320.062C208.373 320.062 213.777 313.699 216.379 300.972C215.379 301.951 213.977 302.441 212.176 302.441C204.57 302.441 198.064 297.913 192.66 288.858C187.455 279.558 184.853 270.747 184.853 262.426C184.853 245.05 190.358 235.383 201.367 233.425L200.166 224.614C196.363 224.614 193.46 224.859 191.459 225.349C189.657 225.593 187.455 227.062 184.853 229.754C182.251 232.201 180.049 236.117 178.247 241.501C173.644 240.522 168.439 236.362 162.634 229.02C161.233 232.201 159.532 234.893 157.53 237.096C155.729 239.054 153.627 240.522 151.225 241.501C143.418 229.754 130.808 223.88 113.393 223.88C95.9786 223.88 83.5683 229.754 76.1621 241.501C71.5582 240.522 67.6549 236.362 64.4523 229.02C59.6482 235.383 54.6441 239.543 49.4397 241.501C47.6382 236.117 45.3363 232.201 42.5339 229.754C39.9317 227.062 37.6298 225.593 35.6281 225.349C33.6265 224.859 30.8241 224.614 27.2211 224.614L26.0201 233.425C31.6248 234.404 35.7282 237.341 38.3304 242.236C41.1328 246.886 42.5339 253.493 42.5339 262.059C42.5339 270.625 39.8317 279.558 34.4271 288.858C29.2228 297.913 22.9175 302.441 15.5113 302.441L11.3078 300.972C13.91 313.699 19.1143 320.062 26.9209 320.062C34.9276 320.062 43.4347 315.901 52.4422 307.58H54.2437C61.0494 315.901 67.8551 320.062 74.6608 320.062C83.6683 320.062 91.4749 313.699 98.0804 300.972C96.4791 301.951 94.6776 302.441 92.6759 302.441C81.4665 302.441 75.8618 295.343 75.8618 281.149C75.8618 266.954 79.665 255.818 87.2714 247.742C94.8777 239.421 103.685 235.261 113.693 235.261C123.702 235.261 132.509 239.421 140.116 247.742C147.722 255.818 151.525 266.954 151.525 281.149C151.525 295.343 145.92 302.441 134.711 302.441L129.006 300.972C135.412 313.699 143.318 320.062 152.726 320.062C159.732 320.062 166.538 315.901 173.143 307.58H174.945ZM86.3706 205.158L102.584 113.382H124.803L141.617 205.158H86.3706ZM123.302 151.928L115.495 195.613H131.408L123.302 151.928Z" fill="#FE1F05"/>
<path d="M259.132 138H406.255L421.268 159.474V209.221H405.655L416.764 277.221C418.565 276.982 421.368 276.863 425.171 276.863L440.183 298.337L443.786 324.105C432.977 324.105 427.573 329.832 427.573 341.284C427.573 348.204 428.273 351.663 429.675 351.663C433.077 351.663 434.979 350.47 435.379 348.084L444.987 354.884L460 376.358C460 387.811 457.598 396.281 452.794 401.768C448.19 407.256 442.185 410 434.779 410C427.573 410 419.266 407.018 409.858 401.053C402.452 407.018 395.246 410 388.24 410C377.231 410 366.822 404.154 357.014 392.463C347.406 380.772 340.9 368.246 337.497 354.884L344.704 348.084C346.305 350.47 348.607 351.663 351.609 351.663C358.215 351.663 361.518 347.011 361.518 337.705L360.617 329.474C356.814 327.088 352.11 325.895 346.505 325.895C341.101 325.895 335.896 327.804 330.892 331.621C325.888 335.439 322.485 340.926 320.683 348.084L327.889 354.884L342.902 376.358C340.1 387.572 335.396 395.923 328.79 401.411C322.385 407.137 315.479 410 308.073 410C300.867 410 293.26 407.018 285.254 401.053C276.246 407.018 267.939 410 260.333 410C249.924 410 240.717 404.035 232.71 392.105C224.903 380.175 221 367.768 221 354.884L230.308 348.084C230.708 350.47 232.61 351.663 236.013 351.663C239.616 351.663 243.018 348.8 246.221 343.074C249.624 337.347 251.726 331.025 252.526 324.105L236.613 302.632L240.216 276.863C248.823 276.863 255.329 277.579 259.732 279.011L271.742 206L259.132 187.747V138ZM370.525 289.032C372.327 287.361 374.328 284.379 376.53 280.084H384.337C387.539 284.618 390.442 287.6 393.044 289.032C393.845 287.361 395.446 285.333 397.848 282.947L380.734 177.368H397.848V148.021H267.539V177.368H284.653L267.239 282.947C269.641 285.095 271.442 287.123 272.643 289.032C275.045 287.361 277.848 284.379 281.05 280.084H288.857C290.458 284.618 292.16 287.6 293.961 289.032C301.567 279.965 314.378 275.432 332.393 275.432C350.608 275.432 363.319 279.965 370.525 289.032ZM393.945 366.695C402.752 374.807 411.159 378.863 419.166 378.863C427.373 378.863 432.777 372.66 435.379 360.253C434.379 361.207 432.977 361.684 431.176 361.684C423.57 361.684 417.064 357.27 411.66 348.442C406.455 339.375 403.853 330.786 403.853 322.674C403.853 305.733 409.358 296.309 420.367 294.4L419.166 285.811C415.363 285.811 412.46 286.049 410.459 286.526C408.657 286.765 406.455 288.197 403.853 290.821C401.251 293.207 399.049 297.025 397.247 302.274C392.644 301.319 387.439 297.263 381.634 290.105C380.233 293.207 378.532 295.832 376.53 297.979C374.729 299.888 372.627 301.319 370.225 302.274C362.418 290.821 349.808 285.095 332.393 285.095C314.979 285.095 302.568 290.821 295.162 302.274C290.558 301.319 286.655 297.263 283.452 290.105C278.648 296.309 273.644 300.365 268.44 302.274C266.638 297.025 264.336 293.207 261.534 290.821C258.932 288.197 256.63 286.765 254.628 286.526C252.626 286.049 249.824 285.811 246.221 285.811L245.02 294.4C250.625 295.354 254.728 298.218 257.33 302.989C260.133 307.523 261.534 313.965 261.534 322.316C261.534 330.667 258.832 339.375 253.427 348.442C248.223 357.27 241.918 361.684 234.511 361.684L230.308 360.253C232.91 372.66 238.114 378.863 245.921 378.863C253.928 378.863 262.435 374.807 271.442 366.695H273.244C280.049 374.807 286.855 378.863 293.661 378.863C302.668 378.863 310.475 372.66 317.08 360.253C315.479 361.207 313.678 361.684 311.676 361.684C300.467 361.684 294.862 354.765 294.862 340.926C294.862 327.088 298.665 316.232 306.271 308.358C313.878 300.246 322.685 296.189 332.693 296.189C342.702 296.189 351.509 300.246 359.116 308.358C366.722 316.232 370.525 327.088 370.525 340.926C370.525 354.765 364.92 361.684 353.711 361.684L348.006 360.253C354.412 372.66 362.318 378.863 371.726 378.863C378.732 378.863 385.538 374.807 392.143 366.695H393.945ZM305.371 266.842L321.584 177.368H343.803L360.617 266.842H305.371ZM342.302 214.947L334.495 257.537H350.408L342.302 214.947Z" fill="#08ADC3"/>
</svg>
